<svg version="1.1"  xmlns="http://www.w3.org/2000/svg" xmlns:xlink="http://www.w3.org/1999/xlink" x="0px" y="0px"
	 viewBox="0 0 64 64" style="enable-background:new 0 0 64 64;" xml:space="preserve">
<g>
	<path d="M32.1,35.7c-7.6,0-15.1,0-22.7,0c-2.1,0-4.6,0.1-5.3-2.6c-0.6-2.3,0.5-3.8,2.7-4.5C8.7,28,8.3,26.3,8.7,25
		c3.8-19.6,42.9-19.6,46.8-0.1c0.4,1.5,0.2,3.3,2.3,3.9c4.8,1.6,1.9,7.8-2.4,6.9C47.5,35.8,39.8,35.7,32.1,35.7
		C32.1,35.7,32.1,35.7,32.1,35.7z M32,28.5C32,28.5,32,28.5,32,28.5c4.5,0,9,0.2,13.5,0c2.4-0.1,5.9,1.4,6.9-1.2
		c0.2-14.8-22.4-16.1-32.8-11.4c-3.9,1.6-6.3,4.7-7.6,8.6c-0.9,2.7-0.4,4.1,2.8,4C20.5,28.4,26.2,28.5,32,28.5z"/>
	<path d="M31.8,53.7c-5.6,0-11.1,0-16.7,0c-4,0-6.6-1.6-6.9-5.8c0.2-4.1-6.1-3.5-4.1-8.3c0.8-2.1,2.7-2.3,4.5-2
		c8.2,1.1,16.4,2,24.5,3.4c8.1,3,25-8,26.8-1c1.5,5-4.6,3.5-4.3,8.1c-0.5,3.8-2.9,5.5-6.7,5.5C43.3,53.7,37.6,53.7,31.8,53.7z
		 M32.4,44.9c-5.9,0-11.8,0-17.8,0c-1.6,0-3.4-0.3-3.3,2.3c0.1,2.1,1.1,3.4,3.3,3.4c11.7,0,23.3,0,35,0c2.2,0,3.2-1.3,3.3-3.4
		c0.1-3-2.2-2.3-3.8-2.3C43.5,44.8,37.9,44.9,32.4,44.9z"/>
	<path d="M43.6,19.6c1.7-0.1,1.7,2.8,0,2.5C42.5,21.7,42.2,19.9,43.6,19.6z"/>
	<path d="M27.7,23.7c-0.1,1.8-2,1.7-2.3,0.2C25.4,22.3,27.2,22.5,27.7,23.7z"/>
	<path d="M23,18.1c-0.2,1.6-2.5,1.5-2.4,0C20.8,16.6,22.4,17.2,23,18.1z"/>
	<path d="M18.4,24c-0.4,1.6-2.1,1.2-2.3-0.2C16,22.2,18.6,22.5,18.4,24z"/>
</g>
</svg>
